{"title":"Massacre in Rome.mp4.dvd rip.uled byCatrix02","uid":8996615,"size":994045242,"categoryP":"video","categoryS":"movies","magnet":"?xt=urn:btih:f361319865016ade71b3cd570305a633650e2e0b&amp;dn=Massacre+in+Rome.mp4.dvd+rip.uled+byCatrix02&amp;tr=udp%3A%2F%2Ftracker.openbittorrent.com%3A80&amp;tr=udp%3A%2F%2Fopen.demonii.com%3A1337&amp;tr=udp%3A%2F%2Ftracker.coppersurfer.tk%3A6969&amp;tr=udp%3A%2F%2Fexodus.desync.com%3A6969","seeders":0,"leechers":1,"uploader":"CATRIX02","files":-1,"time":1380877783,"description":"Storyline\nIn the Nazi occupied city of Rome, an assault on an SS brigade draws retaliation from the military Governship. &quot;Massacre in Rome&quot; is the true story of how this partisan attack led to the mass execution of Italian nationals under the orders of SS-Lieutenant Colonel Kappler.\n\nScreens &lt;a href=&quot;\nhttp://lookpic.com/O/i2/863/E3GMZQaJ.jpeg&quot; rel=&quot;nofollow&quot; target=&quot;_NEW&quot;&gt;\nhttp://lookpic.com/O/i2/863/E3GMZQaJ.jpeg&lt;/a&gt; &lt;a href=&quot;\nhttp://lookpic.com/O/i2/204/hrPXdhzt.jpeg&quot; rel=&quot;nofollow&quot; target=&quot;_NEW&quot;&gt;\nhttp://lookpic.com/O/i2/204/hrPXdhzt.jpeg&lt;/a&gt; &lt;a href=&quot;\nhttp://lookpic.com/O/i2/858/AmRXUWZJ.jpeg&quot; rel=&quot;nofollow&quot; target=&quot;_NEW&quot;&gt;\nhttp://lookpic.com/O/i2/858/AmRXUWZJ.jpeg&lt;/a&gt; &lt;a href=&quot;\nhttp://lookpic.com/O/i2/898/ktGVNgS7.jpeg&quot; rel=&quot;nofollow&quot; target=&quot;_NEW&quot;&gt;\nhttp://lookpic.com/O/i2/898/ktGVNgS7.jpeg&lt;/a&gt; &lt;a href=&quot;\nhttp://lookpic.com/O/i2/1749/Rj48Is9E.jpeg&quot; rel=&quot;nofollow&quot; target=&quot;_NEW&quot;&gt;\nhttp://lookpic.com/O/i2/1749/Rj48Is9E.jpeg&lt;/a&gt;\n\n\n\n &lt;a href=&quot;\nhttp://www.imdb.com/title/tt0070592/?ref_=fn_al_tt_1&quot; rel=&quot;nofollow&quot; target=&quot;_NEW&quot;&gt;\nhttp://www.imdb.com/title/tt0070592/?ref_=fn_al_tt_1&lt;/a&gt;\n\nComplete name                     :Massacre in Rome.mp4.dvd rip.uled byCatrix02\nFormat                                   : MPEG-4\nFormat profile                           : Base Media\nCodec ID                                 : isom\nFile size                                : 945 MiB\nDuration                                 : 1h 39mn\nOverall bit rate                         : 1 332 Kbps\nMovie name                               : Massacre_in_rome\nGenre                                    : War_Drama_Based_on_a_true_story_Rome_1944\nWriting application                      : Lavf54.46.100\n\nID                                       : 1\nFormat                                   : MPEG-4 Visual\nFormat settings, BVOP                    : No\nFormat settings, QPel                    : No\nFormat settings, GMC                     : No warppoints\nFormat settings, Matrix                  : Default (H.263)\nCodec ID                                 : 20\nDuration                                 : 1h 39mn\nBit rate mode                            : Constant\nBit rate                                 : 1 200 Kbps\nWidth                                    : 720 pixels\nHeight                                   : 540 pixels\nDisplay aspect ratio                     : 4:3\nFrame rate mode                          : Constant\nFrame rate                               : 23.976 fps\nColor space                              : YUV\nChroma subsampling                       : 4:2:0\nBit depth                                : 8 bits\nScan type                                : Progressive\nCompression mode                         : Lossy\nBits/(Pixel*Frame)                       : 0.129\nStream size                              : 851 MiB (90%)\nWriting library                          : Lavc54.79.100\n\nID                                       : 2\nFormat                                   : AAC\nFormat/Info                              : Advanced Audio Codec\nFormat profile                           : LC\nCodec ID                                 : 40\nDuration                                 : 1h 39mn\nBit rate mode                            : Constant\nBit rate                                 : 128 Kbps\nChannel(s)                               : 2 channels\nChannel positions                        : Front: L R\nSampling rate                            : 44.1 KHz\nCompression mode                         : Lossy\nStream size                              : 90.8 MiB (10%)","torrent":{"xt":"urn:btih:f361319865016ade71b3cd570305a633650e2e0b","amp;dn":"Massacre+in+Rome.mp4.dvd+rip.uled+byCatrix02","amp;tr":["udp%3A%2F%2Ftracker.openbittorrent.com%3A80","udp%3A%2F%2Fopen.demonii.com%3A1337","udp%3A%2F%2Ftracker.coppersurfer.tk%3A6969","udp%3A%2F%2Fexodus.desync.com%3A6969"],"infoHash":"f361319865016ade71b3cd570305a633650e2e0b","infoHashBuffer":{"type":"Buffer","data":[243,97,49,152,101,1,106,222,113,179,205,87,3,5,166,51,101,14,46,11]},"announce":[],"urlList":[]}}